<?xml version="1.0" encoding="UTF-8"?>
<!DOCTYPE svg PUBLIC "-//W3C//DTD SVG 1.1//EN" "http://www.w3.org/Graphics/SVG/1.1/DTD/svg11.dtd">
<!-- Creator: CorelDRAW X7 -->
<svg xmlns="http://www.w3.org/2000/svg" xml:space="preserve" width="130px" height="40px" version="1.1" style="shape-rendering:geometricPrecision; text-rendering:geometricPrecision; image-rendering:optimizeQuality; fill-rule:evenodd; clip-rule:evenodd"
viewBox="0 0 1300000 399995"
 xmlns:xlink="http://www.w3.org/1999/xlink">
 <defs>
  <style type="text/css">
   <![CDATA[
    .fil2 {fill:#008CCC;fill-rule:nonzero}
    .fil1 {fill:#61BF1A;fill-rule:nonzero}
    .fil0 {fill:#636B70;fill-rule:nonzero}
   ]]>
  </style>
 </defs>
 <g id="Layer_x0020_1">
  <metadata id="CorelCorpID_0Corel-Layer"/>
  <g id="_2506161676656">
   <path class="fil0" d="M612228 316774c-7405,0 -17799,-3154 -27921,-16902l-106643 -145158 0 158339 -41917 0 12 -192533c0,-24767 13700,-31925 19594,-33850 5882,-1937 21177,-4276 35823,15685l106654 145111 0 -68918 41894 0 0 103147c0,24720 -13712,31925 -19571,33827 -1842,590 -4571,1252 -7925,1252z"/>
   <path class="fil0" d="M840336 316774c-7441,0 -17847,-3154 -27933,-16902l-106678 -145158 0 66744 -41894 0 0 -100938c12,-24767 13712,-31925 19594,-33850 5894,-1937 21178,-4276 35823,15685l106666 145111 0 -160513 41906 0 0 194742c0,24720 -13724,31925 -19583,33827 -1854,590 -4570,1252 -7901,1252z"/>
   <path class="fil0" d="M183273 314659l-128245 0c-30059,0 -54532,-24472 -54532,-54531l0 -124088c0,-30083 24473,-54543 54532,-54543l128245 0 0 45106 -128245 0c-5103,0 -9402,4335 -9402,9437l0 124088c0,5102 4299,9389 9402,9389l128245 0 0 45142z"/>
   <path class="fil0" d="M258651 126603c-5090,0 -9401,4323 -9401,9425l0 124088c0,5102 4311,9390 9401,9390l98410 0c5126,0 9461,-4288 9461,-9390l0 -124088c0,-3342 -1760,-5598 -2776,-6614 -1063,-1051 -3307,-2811 -6649,-2811l-98446 0zm98410 188056l-98410 0c-30083,0 -54532,-24460 -54532,-54543l0 -124088c0,-30071 24449,-54531 54532,-54531l98446 0c14527,0 28228,5669 38551,15992 10323,10334 16016,24024 16016,38539l-36 124088c0,30083 -24472,54543 -54567,54543z"/>
   <path class="fil0" d="M946470 126603l137174 0 0 -45106 -137174 0c-30071,0 -54555,24460 -54555,54531l0 124088c0,30083 24484,54543 54555,54543l137174 0 0 -45153 -137174 0c-5102,0 -9425,-4288 -9425,-9390l0 -39473 107753 0 0 -45142 -107753 0 0 -39473c0,-5102 4323,-9425 9425,-9425z"/>
   <polygon class="fil0" points="1299504,81497 1104609,81497 1104609,126603 1179515,126603 1179515,322655 1224645,322655 1224645,126603 1299504,126603 "/>
   <polygon class="fil1" points="639724,154442 597819,154442 597819,-12 639724,-12 "/>
   <polygon class="fil2" points="705748,399995 663843,399995 663843,245541 705748,245541 "/>
  </g>
 </g>
</svg>
